HIERARCHY
ROOT hips
{
  OFFSET 0 10.6860622 2.3727825e-15
  CHANNELS 6 Xposition Yposition Zposition Yrotation Xrotation Zrotation
  JOINT leftUpperLeg
  {
    OFFSET 0.6642549969 -0.9402397400000004 0
    CHANNELS 3 Yrotation Xrotation Zrotation
    JOINT leftLowerLeg
    {
      OFFSET 0 -3.997221335632195 0
      CHANNELS 3 Yrotation Xrotation Zrotation
      JOINT leftFoot
      {
        OFFSET -0.13777839790000004 -4.6145792000000005 -0.22186036399999998
        CHANNELS 3 Yrotation Xrotation Zrotation
        JOINT leftToes
        {
          OFFSET -0.03777410834999995 -0.9130806927000008 0.85230013
          CHANNELS 3 Yrotation Xrotation Zrotation
          End Site
          {
            OFFSET -0.03777410834999995 -0.9130806927000008 0.85230013
          }
        }
      }
    }
  }
  JOINT rightUpperLeg
  {
    OFFSET -0.6642778626 -0.9402397400000004 0
    CHANNELS 3 Yrotation Xrotation Zrotation
    JOINT rightLowerLeg
    {
      OFFSET 0 -3.997221452859387 0
      CHANNELS 3 Yrotation Xrotation Zrotation
      JOINT rightFoot
      {
        OFFSET 0.1377926176 -4.6145792000000005 -0.22185782299999995
        CHANNELS 3 Yrotation Xrotation Zrotation
        JOINT rightToes
        {
          OFFSET 0.037780746850000047 -0.9130806927000008 0.85230167
          CHANNELS 3 Yrotation Xrotation Zrotation
          End Site
          {
            OFFSET 0.037780746850000047 -0.9130806927000008 0.85230167
          }
        }
      }
    }
  }
  JOINT spine
  {
    OFFSET 0 0.13988381660000015 0
    CHANNELS 3 Yrotation Xrotation Zrotation
    JOINT chest
    {
      OFFSET 0 0.6191039003973773 0
      CHANNELS 3 Yrotation Xrotation Zrotation
      JOINT upperChest
      {
        OFFSET 0 0.9855186130586943 0
        CHANNELS 3 Yrotation Xrotation Zrotation
        JOINT leftShoulder
        {
          OFFSET 0.1807663869 1.5087829790000005 0
          CHANNELS 3 Yrotation Xrotation Zrotation
          JOINT leftUpperArm
          {
            OFFSET 0.5985063006419806 0 0
            CHANNELS 3 Yrotation Xrotation Zrotation
            JOINT leftLowerArm
            {
              OFFSET 2.2993332369501065 0 0
              CHANNELS 3 Yrotation Xrotation Zrotation
              JOINT leftHand
              {
                OFFSET 2.395047042602395 0 0
                CHANNELS 3 Yrotation Xrotation Zrotation
                JOINT leftIndexProximal
                {
                  OFFSET 0.5766295810000004 0.04556643899499946 0.17265095988184
                  CHANNELS 3 Yrotation Xrotation Zrotation
                  JOINT leftIndexIntermediate
                  {
                    OFFSET 0.2957229000000008 -0.019352197700001517 -0.007932640616999987
                    CHANNELS 3 Yrotation Xrotation Zrotation
                    JOINT leftIndexDistal
                    {
                      OFFSET 0.19008243099999922 -0.012484908149998475 -0.002786250786000012
                      CHANNELS 3 Yrotation Xrotation Zrotation
                      End Site
                      {
                        OFFSET 0.19008243099999922 -0.012484908149998475 -0.002786250786000012
                      }
                    }
                  }
                }
                JOINT leftMiddleProximal
                {
                  OFFSET 0.5834975091000001 0.0524350405149987 0.02204081888183999
                  CHANNELS 3 Yrotation Xrotation Zrotation
                  JOINT leftMiddleIntermediate
                  {
                    OFFSET 0.33880573540000003 -0.019871473270000717 -0.00000971183179999946
                    CHANNELS 3 Yrotation Xrotation Zrotation
                    JOINT leftMiddleDistal
                    {
                      OFFSET 0.20676022730000088 -0.012221336379999448 0.0001471936708000235
                      CHANNELS 3 Yrotation Xrotation Zrotation
                      End Site
                      {
                        OFFSET 0.20676022730000088 -0.012221336379999448 0.0001471936708000235
                      }
                    }
                  }
                }
                JOINT leftLittleProximal
                {
                  OFFSET 0.5344154683999995 -0.012880921405001189 -0.24414037221816004
                  CHANNELS 3 Yrotation Xrotation Zrotation
                  JOINT leftLittleIntermediate
                  {
                    OFFSET 0.21758961730000093 -0.011650919939999227 0.011893592810000034
                    CHANNELS 3 Yrotation Xrotation Zrotation
                    JOINT leftLittleDistal
                    {
                      OFFSET 0.1475273964999999 -0.008152365682999818 0.006001092492999946
                      CHANNELS 3 Yrotation Xrotation Zrotation
                      End Site
                      {
                        OFFSET 0.1475273964999999 -0.008152365682999818 0.006001092492999946
                      }
                    }
                  }
                }
                JOINT leftRingProximal
                {
                  OFFSET 0.5799399463000003 0.026911854694997794 -0.12150566991816003
                  CHANNELS 3 Yrotation Xrotation Zrotation
                  JOINT leftRingIntermediate
                  {
                    OFFSET 0.26167887460000006 -0.013480186499999602 0.010996293000000053
                    CHANNELS 3 Yrotation Xrotation Zrotation
                    JOINT leftRingDistal
                    {
                      OFFSET 0.17667108799999987 -0.008990287899999228 0.0055541023999999065
                      CHANNELS 3 Yrotation Xrotation Zrotation
                      End Site
                      {
                        OFFSET 0.17667108799999987 -0.008990287899999228 0.0055541023999999065
                      }
                    }
                  }
                }
                JOINT leftThumbProximal
                {
                  OFFSET 0.11018806699999972 -0.09448718900500053 0.17047963138184
                  CHANNELS 3 Yrotation Xrotation Zrotation
                  JOINT leftThumbIntermediate
                  {
                    OFFSET 0.31062601459999983 -0.08126270900000132 0.15443142000000007
                    CHANNELS 3 Yrotation Xrotation Zrotation
                    JOINT leftThumbDistal
                    {
                      OFFSET 0.21627175790000086 -0.08833193599999878 0.018771167799999988
                      CHANNELS 3 Yrotation Xrotation Zrotation
                      End Site
                      {
                        OFFSET 0.21627175790000086 -0.08833193599999878 0.018771167799999988
                      }
                    }
                  }
                }
              }
            }
          }
        }
        JOINT neck
        {
          OFFSET 0 1.5463305265074576 0
          CHANNELS 3 Yrotation Xrotation Zrotation
          JOINT head
          {
            OFFSET 0 0.8456443600000344 0
            CHANNELS 3 Yrotation Xrotation Zrotation
            JOINT leftEye
            {
              OFFSET 0.30408573140000006 0.5104519199999995 0.1276382305
              CHANNELS 3 Yrotation Xrotation Zrotation
              End Site
              {
                OFFSET 0.30408573140000006 0.5104519199999995 0.1276382305
              }
            }
            JOINT rightEye
            {
              OFFSET -0.30409491089999996 0.5104519199999995 0.1276379445
              CHANNELS 3 Yrotation Xrotation Zrotation
              End Site
              {
                OFFSET -0.30409491089999996 0.5104519199999995 0.1276379445
              }
            }
            JOINT jaw
            {
              OFFSET -3.155239131000001e-7 -0.11984121820000082 0.60178107
              CHANNELS 3 Yrotation Xrotation Zrotation
              End Site
              {
                OFFSET -3.155239131000001e-7 -0.11984121820000082 0.60178107
              }
            }
          }
        }
        JOINT rightShoulder
        {
          OFFSET -0.1807303465 1.5087829790000005 0
          CHANNELS 3 Yrotation Xrotation Zrotation
          JOINT rightUpperArm
          {
            OFFSET -0.5985063796536958 0 0
            CHANNELS 3 Yrotation Xrotation Zrotation
            JOINT rightLowerArm
            {
              OFFSET -2.2993322059002854 0 0
              CHANNELS 3 Yrotation Xrotation Zrotation
              JOINT rightHand
              {
                OFFSET -2.395045314457259 0 0
                CHANNELS 3 Yrotation Xrotation Zrotation
                JOINT rightIndexProximal
                {
                  OFFSET -0.5764487688300002 0.0441371204405987 0.17361932004999997
                  CHANNELS 3 Yrotation Xrotation Zrotation
                  JOINT rightIndexIntermediate
                  {
                    OFFSET -0.29573011380000047 -0.01934826376999843 -0.007698921482999974
                    CHANNELS 3 Yrotation Xrotation Zrotation
                    JOINT rightIndexDistal
                    {
                      OFFSET -0.19008373999999884 -0.012503266380000655 -0.0026365778999999897
                      CHANNELS 3 Yrotation Xrotation Zrotation
                      End Site
                      {
                        OFFSET -0.19008373999999884 -0.012503266380000655 -0.0026365778999999897
                      }
                    }
                  }
                }
                JOINT rightMiddleProximal
                {
                  OFFSET -0.5834852037300005 0.05211639405060153 0.02307162440000001
                  CHANNELS 3 Yrotation Xrotation Zrotation
                  JOINT rightMiddleIntermediate
                  {
                    OFFSET -0.33880114510000003 -0.019952774050000954 0.0002455003561999819
                    CHANNELS 3 Yrotation Xrotation Zrotation
                    JOINT rightMiddleDistal
                    {
                      OFFSET -0.20675694929999955 -0.012273788999999091 0.00030209124000002766
                      CHANNELS 3 Yrotation Xrotation Zrotation
                      End Site
                      {
                        OFFSET -0.20675694929999955 -0.012273788999999091 0.00030209124000002766
                      }
                    }
                  }
                }
                JOINT rightLittleProximal
                {
                  OFFSET -0.5346811737299992 -0.011214256288399227 -0.24363941305000003
                  CHANNELS 3 Yrotation Xrotation Zrotation
                  JOINT rightLittleIntermediate
                  {
                    OFFSET -0.21757715980000092 -0.011771559690000988 0.01201554387
                    CHANNELS 3 Yrotation Xrotation Zrotation
                    JOINT rightLittleDistal
                    {
                      OFFSET -0.1475201849000004 -0.00822055339600003 0.006082065407000015
                      CHANNELS 3 Yrotation Xrotation Zrotation
                      End Site
                      {
                        OFFSET -0.1475201849000004 -0.00822055339600003 0.006082065407000015
                      }
                    }
                  }
                }
                JOINT rightRingProximal
                {
                  OFFSET -0.5800810755299999 0.027657985680600072 -0.12066365025000003
                  CHANNELS 3 Yrotation Xrotation Zrotation
                  JOINT rightRingIntermediate
                  {
                    OFFSET -0.26166445029999974 -0.013623118409999302 0.011164098990000045
                    CHANNELS 3 Yrotation Xrotation Zrotation
                    JOINT rightRingDistal
                    {
                      OFFSET -0.17666387530000027 -0.009072900100000503 0.005668185599999959
                      CHANNELS 3 Yrotation Xrotation Zrotation
                      End Site
                      {
                        OFFSET -0.17666387530000027 -0.009072900100000503 0.005668185599999959
                      }
                    }
                  }
                }
                JOINT rightThumbProximal
                {
                  OFFSET -0.10997596379000074 -0.09577489355940072 0.16989765924999997
                  CHANNELS 3 Yrotation Xrotation Zrotation
                  JOINT rightThumbIntermediate
                  {
                    OFFSET -0.31036620999999986 -0.08229339117999834 0.15440884469999996
                    CHANNELS 3 Yrotation Xrotation Zrotation
                    JOINT rightThumbDistal
                    {
                      OFFSET -0.21631306399999906 -0.08825326400000111 0.018656797720000014
                      CHANNELS 3 Yrotation Xrotation Zrotation
                      End Site
                      {
                        OFFSET -0.21631306399999906 -0.08825326400000111 0.018656797720000014
                      }
                    }
                  }
                }
              }
            }
          }
        }
      }
    }
  }
}
MOTION
Frames: 8
Frame Time: 0.03333333333333333
0 11.682712981546562 0 0 0 0 0 0 -5.826343164929014 -0.3712483961610101 -3.6333298826370974 5.838118207697276 0 0 0 0 0 0 0 0 5.826343164929014 0.3712483961610101 -3.6333298826370974 -5.838118207697276 0 0 0 0 0 0 0 -4.610651315171937 0 0 3.0831277533083026 0 0 0 0 0 1.5275236235667615 0 0 0 0 0 0 0 0 0 0 0 0 0 0 0 0 0 0 0 0 0 0 0 0 0 0 0 0 0 0 0 0 0 0 0 0 0 0 0 0 0 0 0 0 0 0 0 0 0 0 0 0 0 0 0 0 1.5275236235667615 0 0 0 0 0 0 0 0 0 0 0 0 0 0 1.5275236235667615 0 0 0 0 0 0 0 0 0 0 0 0 0 0 0 0 0 0 0 0 0 0 0 0 0 0 0 0 0 0 0 0 0 0 0 0 0 0 0 0 0 0 0 0 0 0 0 0 0 0 0 0 0 0 0
-0.08303520089667402 -0.7892490745775695 0.28296999752206625 0 0 0 10.428991355987977 -24.26867727970193 1.116178486183927 4.495488385265814 42.22181165149401 9.581934841853416 7.1569284765979555 -19.926144195199193 -18.619316141389877 0 0 0 -6.897595295822075 -21.66471620313709 -13.122616876808916 -2.434092582484338 28.633123342867922 -6.706532676668781 -5.106202956694658 -7.374307435955 26.44430009658849 0 0 0 -0.4449037767497925 -11.386299682855412 -0.7415607022159597 16.907814175684454 -0.017005093544777486 -0.25598343686639297 0 0 0 -20.06236651950479 13.783804522703198 43.40672635572456 -8.964278579689815 -13.359963671678495 -65.29640672402915 -137.22546067179061 -24.227998737356636 21.037535492757183 0 0 -30.002338258741247 0 0 0 0 0 0 0 0 0 0 0 0 0 0 0 0 0 0 0 0 0 0 0 0 0 0 0 0 0 0 0 0 0 0 0 0 0 0 0 0 0 0 0 0 0 0 1.5275236235667615 13.997002907551382 0 -0.3269820069752727 0 0 0 0 0 0 0 0 0 0 14.542657481122774 -2.2960487534381917 15.707188605100626 7.959318235843428 -14.427370496401247 58.65667812065401 59.54834594272049 4.2963640692553655 -4.735050357881733 -11.568712673676117 0.062883803404827 56.505481413626285 0 0 0 0 0 0 0 0 0 0 0 0 0 0 0 0 0 0 0 0 0 0 0 0 0 0 0 0 0 0 0 0 0 0 0 0 0 0 0 0 0 0 0 0 0
-0.08303520089667402 -0.8004011760387448 0.289061025923222 0 -0.4432470127421303 0 10.41843174562986 -23.869160894348852 1.2123736845220776 4.5316603838136285 42.40125418968805 9.637983682595118 7.1388687884978825 -20.072846434010714 -18.659390011647595 0 0 0 -6.916415889484909 -21.306977933025898 -13.198514686442564 -2.4590683765826786 28.86795935905171 -6.760298019445353 -5.042497723620419 -7.544908678234506 26.485328947590432 0 0 0 -0.4449037767497925 -11.386299682855412 -0.7415607022159597 16.909761707201593 0.8499241483981272 0.007583408220169494 0 0 0 -19.991540348577903 13.414410380337802 43.67292448144434 -8.933723367401317 -13.381199749677615 -65.10720606557501 -137.19501853585058 -24.23838578279279 21.171755682588266 -0.13868500555885901 -0.25642291274963797 -29.837449462545628 0 0 0 0 0 0 0 0 0 0 0 0 0 0 0 0 0 0 0 0 0 0 0 0 0 0 0 0 0 0 0 0 0 0 0 0 0 0 0 0 0 0 0 0 0 -0.000011639707572938355 1.2988700104087434 13.997006770810698 0 -0.2804855066089697 0 0 0 0 0 0 0 0 0 0 14.392764250140736 -2.8522525528762483 15.23875417557919 7.997276831525513 -14.450357863844076 58.825578305532986 59.65556252609156 4.3049507428890434 -4.647888063315092 -11.82005773928383 0.018850617085540342 56.56508951164115 0 0 0 0 0 0 0 0 0 0 0 0 0 0 0 0 0 0 0 0 0 0 0 0 0 0 0 0 0 0 0 0 0 0 0 0 0 0 0 0 0 0 0 0 0
-0.08303520089667402 -0.8115532774999201 0.2951520543243778 0 -0.8864939786243872 0 10.408635910018432 -23.46962991950672 1.3081950197693015 4.568174799581506 42.58066874235076 9.6943478203931 7.120901761821772 -20.21955868003935 -18.699451341195232 0 0 0 -6.935698392357082 -20.949263998648423 -13.274356326276218 -2.4843532960867343 29.102774153952268 -6.814302885640938 -4.9788898848764624 -7.715555689152161 26.52618289935871 0 0 0 -0.4449037767497925 -11.386299682855412 -0.7415607022159597 16.91570077365933 1.716835306837487 0.27126909882484057 0 0 0 -19.92258474191557 13.044700845789025 43.938247680294715 -8.903237917423287 -13.402534244641382 -64.91800053566088 -137.1645997061269 -24.248837350667717 21.305981860419944 -0.2781115907185828 -0.5124449226993217 -29.671933773625387 0 0 0 0 0 0 0 0 0 0 0 0 0 0 0 0 0 0 0 0 0 0 0 0 0 0 0 0 0 0 0 0 0 0 0 0 0 0 0 0 0 0 0 0 0 -0.000023291464027320614 1.0702163774391178 13.997009180331304 0 -0.2339890041954174 0 0 0 0 0 0 0 0 0 0 14.247350831496917 -3.4096603327704895 14.771530001511172 8.03516857728792 -14.473453419025041 58.99448008516597 59.76279180979987 4.313374835616137 -4.560708933038495 -12.071450514968316 -0.024920632993515796 56.6248893302134 0 0 0 0 0 0 0 0 0 0 0 0 0 0 0 0 0 0 0 0 0 0 0 0 0 0 0 0 0 0 0 0 0 0 0 0 0 0 0 0 0 0 0 0 0
-0.08303520089667402 -0.8338585539913543 0.3073341111266893 0 -1.7738410080379259 0 10.391291214304124 -22.66987017749699 1.498924789100211 4.64225781037359 42.93947131664995 9.80805460903348 7.085241222842577 -20.513049979932358 -18.779552266161357 0 0 0 -6.975670208468009 -20.233427119425016 -13.42599084053431 -2.535876278135409 29.57247511526784 -6.92307399944892 -4.851943510934625 -8.057045898666518 26.607375914856874 0 0 0 -0.4449037767497925 -11.386301424684682 -0.7415607022159597 16.93971621034274 3.4576243561377735 0.8016477853090267 0 0 0 -19.790108664010077 12.303634099651513 44.466909308373275 -8.84246518874995 -13.445502113557616 -64.53949321377868 -137.10383195429884 -24.26993973813264 21.574476968453762 -0.5593629777905438 -1.0235507107039707 -29.338828643705817 0 0 0 0 0 0 0 0 0 0 0 0 0 0 0 0 0 0 0 0 0 0 0 0 0 0 0 0 0 0 0 0 0 0 0 0 0 0 0 0 0 0 0 0 0 -0.00004657745744093333 0.6124272334864062 13.99702206698258 0 -0.14098099636170758 0 0 0 0 0 0 0 0 0 0 13.969184054112583 -4.531020150350529 13.837810923250041 8.11076353647884 -14.51997541648193 59.33234339708599 59.97729813627655 4.329733973222398 -4.386285468913312 -12.57454028782425 -0.11170686748941379 56.745096102415665 0 0 0 0 0 0 0 0 0 0 0 0 0 0 0 0 0 0 0 0 0 0 0 0 0 0 0 0 0 0 0 0 0 0 0 0 0 0 0 0 0 0 0 0 0
-0.08303520089667402 -0.8450107896486633 0.31342513952784506 0 -2.217888530268857 0 10.38373009483889 -22.26968061271283 1.5938451308060675 4.679832233683707 43.11885804340973 9.865405021256343 7.067545702643378 -20.659825615279082 -18.819588288906328 0 0 0 -6.996353813797988 -19.87534364516891 -13.501792307912838 -2.5621200725359707 29.80734986134412 -6.977846528040624 -4.788603883788396 -8.227881942785196 26.647719882404992 0 0 0 -0.4449037767497925 -11.386300553770045 -0.7415607022159597 16.957874287914898 4.331044414803635 1.0684637901193514 0 0 0 -19.72657374107526 11.93233889686236 44.730257901468704 -8.81218096735808 -13.467139058711142 -64.35020233413948 -137.07348292388934 -24.28059059151625 21.708747453179743 -0.7011882058415078 -1.2786089987773472 -29.171226932244085 0 0 0 0 0 0 0 0 0 0 0 0 0 0 0 0 0 0 0 0 0 0 0 0 0 0 0 0 0 0 0 0 0 0 0 0 0 0 0 0 0 0 0 0 0 -0.00005869596380143194 0.38329824089634906 13.997027570719213 0 -0.09447049696889154 0 0 0 0 0 0 0 0 0 0 13.8365063887142 -5.094718776155071 13.371313063059363 8.148466017962836 -14.543401053871952 59.50129615234184 60.084584927371374 4.337670292222445 -4.29904322082849 -12.826228548149903 -0.15471316411950953 56.805509995552185 0 0 0 0 0 0 0 0 0 0 0 0 0 0 0 0 0 0 0 0 0 0 0 0 0 0 0 0 0 0 0 0 0 0 0 0 0 0 0 0 0 0 0 0 0
-0.08303520089667402 -0.8561630253059722 0.31951616792900084 0 -2.6619360449384084 0 10.376904587646324 -21.86948064801788 1.6884401567938054 4.717764340206051 43.29821853652799 9.92308545931882 7.049943811395339 -20.80661347074466 -18.859613756162496 0 0 0 -7.0174937015390695 -19.517286571487894 -13.577562360069049 -2.5886852404356535 30.04219953631691 -7.0328728669857545 -4.725358367263204 -8.398762330849713 26.68788947559654 0 0 0 -0.4449037767497925 -11.386299682855412 -0.7415607022159597 16.980138150333907 5.204370970535995 1.3358973460846253 0 0 0 -19.66486811851071 11.560762808023497 44.99282977623341 -8.781966670493464 -13.488872783953854 -64.16090806479441 -137.04315954192555 -24.291306033993934 21.8430211878607 -0.8437745920115801 -1.533250538815483 -29.00297721847937 0 0 0 0 0 0 0 0 0 0 0 0 0 0 0 0 0 0 0 0 0 0 0 0 0 0 0 0 0 0 0 0 0 0 0 0 0 0 0 0 0 0 0 0 0 -0.00007083275772470762 0.15416928165055954 13.997032447718375 0 -0.04795999979703237 0 0 0 0 0 0 0 0 0 0 13.708321636313062 -5.659474688218597 12.905695209076196 8.1861014338875 -14.566931503299067 59.67025107276218 60.19188740491894 4.345444009935241 -4.211785259025961 -13.077961849620966 -0.197453635864476 56.86611253471698 0 0 0 0 0 0 0 0 0 0 0 0 0 0 0 0 0 0 0 0 0 0 0 0 0 0 0 0 0 0 0 0 0 0 0 0 0 0 0 0 0 0 0 0 0
-0.08303520089667402 -0.8784672282283229 0.3316982247313124 0 -3.550672896635626 0 10.365424467175238 -21.06855503960404 1.8768178099354844 4.794726270507574 43.65690000773533 10.039466840689737 7.015015145154355 -21.100251810493972 -18.93964856504682 0 0 0 -7.061159474817955 -18.800892230488014 -13.729104223124574 -2.6428033285572643 30.511947834693096 -7.143724130362145 -4.599128207748519 -8.740699602958873 26.767722996812513 0 0 0 -0.44490274256985524 -11.386299682855412 -0.7415608654987781 17.037298893447925 6.95606019121613 1.8747899103197703 0 0 0 -19.546811630727767 10.816243333894393 45.51615483906445 -8.721744433228427 -13.532629814874284 -63.78223852213947 -136.98258460819852 -24.312925132080995 22.111599940018667 -1.1313678928355255 -2.041477078644412 -28.66437513715933 0 0 0 0 0 0 0 0 0 0 0 0 0 0 0 0 0 0 0 0 0 0 0 0 0 0 0 0 0 0 0 0 0 0 0 0 0 0 0 0 0 0 0 0 0 -0.000094121223789362 -0.304543907691996 13.997041148546792 0 0.04507500097866711 0 0 0 0 0 0 0 0 0 0 13.464931414429177 -6.794357187644967 11.974825353350344 8.261177725867721 -14.614328164233838 60.008220875184115 60.40654215793179 4.360503622060336 -4.03721151947402 -13.581690200280793 -0.2821570021130814 56.98790402089154 0 0 0 0 0 0 0 0 0 0 0 0 0 0 0 0 0 0 0 0 0 0 0 0 0 0 0 0 0 0 0 0 0 0 0 0 0 0 0 0 0 0 0 0 0
